<?xml version="1.0" encoding="utf-8"?>
<!-- Generator: Adobe Illustrator 19.1.0, SVG Export Plug-In . SVG Version: 6.00 Build 0)  -->
<svg version="1.1" id="Ebene_1" xmlns="http://www.w3.org/2000/svg" xmlns:xlink="http://www.w3.org/1999/xlink" x="0px" y="0px"
	 viewBox="0 0 150 31.2" style="enable-background:new 0 0 150 31.2;" xml:space="preserve">
<style type="text/css">
	.st0{fill-rule:evenodd;clip-rule:evenodd;fill:#807D63;}
	.st1{fill:#807D63;}
	.st2{fill:#C60C0E;}
	.st3{fill:#BFBFAF;}
	.st4{clip-path:url(#SVGID_2_);fill:#C60C0E;}
	.st5{clip-path:url(#SVGID_4_);fill:#807D63;}
	.st6{clip-path:url(#SVGID_6_);fill:#C60C0E;}
	.st7{clip-path:url(#SVGID_8_);fill:#807D63;}
</style>
<g>
	<path class="st0" d="M4.2,26.6c0-0.6,0.4-1.2,1.4-1.8c3.2,0.3,4,0.8,4,1.7c0,1.3-1.4,1.7-2.7,1.7C5.6,28.2,4.2,27.9,4.2,26.6
		L4.2,26.6z M6.9,13.8c1,0,1.9,0.9,1.9,1.8c0,1-0.8,1.9-1.9,1.9c-1.2,0-1.9-0.9-1.9-1.9C5,14.6,5.8,13.8,6.9,13.8L6.9,13.8z
		 M14.6,11.8L10.3,12c-0.9-0.5-2.4-0.7-3.4-0.7c-2.8,0-5.7,1.2-5.7,4.5c0,1.7,0.9,2.7,2.3,3.5c-1.3,0.4-3.2,1.5-3.2,3
		c0,1,0.7,1.6,2.5,2v0.1C1.1,25.1,0,26.2,0,27.5c0,3.3,4,3.7,6.5,3.7c3.2,0,7.2-1.4,7.2-5.2c0-3.8-4.2-4.3-7.2-4.6
		C5.6,21.3,5,21.1,5,20.6C5,20.3,5.3,20,5.3,20c0.1,0,1.1,0.1,1.8,0.1c2.4,0,5.4-1.2,5.4-3.8c0-0.6-0.2-1.2-0.5-1.7l2.5,0.2V11.8
		L14.6,11.8z"/>
	<path class="st1" d="M16.3,24.7h4.5l0.1-7.5c0-0.3,1.2-1.5,2.6-1.5c0.7,0,1.2,0.1,1.6,0.3l0.6-4.4c-0.5-0.1-1-0.2-1.5-0.2
		c-1.7,0-2.6,1.1-3.3,2.2h-0.1v-1.8h-4.5L16.3,24.7L16.3,24.7z"/>
	<path class="st0" d="M28.1,16c1.2-0.6,2.4-1.4,3.7-1.4c0.8,0,1.4,0.5,1.4,1.5v0.5c-1.2,0.1-2.5,0.3-3.3,0.5
		c-2.8,0.7-4.3,1.7-4.3,4.4c0,2.3,1.7,3.7,4,3.7c1.4,0,2.7-0.6,3.7-1.4c0.2,0.9,1,1.4,2.2,1.4c0.8,0,2.8-0.3,3.4-0.8l-0.5-2.4
		c-0.1,0.1-0.3,0.2-0.5,0.2c-0.6,0-0.7-0.4-0.7-0.9V15c0-2.5-1.6-3.6-3.9-3.6c-2.6,0-4.6,0.8-6.9,2.2L28.1,16L28.1,16z M33.2,21.4
		c0,0.3-0.9,0.8-1.8,0.8c-0.7,0-1.6-0.4-1.6-1.3c0-1.4,1.5-2,2.6-2.1c0.4,0,0.6-0.1,0.8-0.1V21.4L33.2,21.4z"/>
	<path class="st1" d="M48.7,20.1c-0.6,0.6-1.6,1.2-2.3,1.2c-1.3,0-1.6-0.8-1.6-1.9c0-2.7,0-5.2,0.1-7.7h-4.5c0,2.8-0.1,5.7-0.1,8.3
		c0,3.5,1.5,5,4.2,5c1.6,0,3.2-0.9,4.2-1.9v1.4h4.5l0.1-12.9h-4.5L48.7,20.1L48.7,20.1z"/>
	<path class="st0" d="M55.9,24.7h4.2v-0.6h0.1c0.6,0.6,1.7,1.1,3,1.1c4.2,0,6.6-3.3,6.6-7.3c0-3.2-2-6.5-5.9-6.5
		c-1.2,0-2.6,0.5-3.4,1.2l0.1-7H56L55.9,24.7L55.9,24.7z M60.3,15.9c0.6-0.5,1.5-0.9,2.3-0.9c2,0,2.7,1.5,2.7,3.3c0,2-0.9,3.6-3,3.6
		c-0.7,0-1.6-0.2-2.1-0.7L60.3,15.9L60.3,15.9z"/>
	<path class="st1" d="M92,24.7h4.5l0.1-8.4c0.6-0.6,1.6-1.2,2.3-1.2c1.3,0,1.6,0.8,1.6,1.9c0,2.7,0,5.2-0.1,7.7h4.5
		c0-2.8,0.1-5.7,0.1-8.3c0-3.5-1.5-5-4.2-5c-1.6,0-3.2,0.9-4.2,1.9v-1.4h-4.5L92,24.7L92,24.7z"/>
	<path class="st0" d="M120.4,5.5h-4.3L116,12c-0.8-0.4-1.9-0.7-2.9-0.7c-4.2,0-6.6,3.3-6.6,7.3c0,3.2,2,6.5,5.9,6.5
		c1.4-0.1,2.7-0.6,3.6-1.4v0.9h4.2L120.4,5.5L120.4,5.5z M116,20.6c-0.6,0.5-1.5,0.9-2.3,0.9c-2,0-2.7-1.5-2.7-3.3
		c0-2,0.9-3.6,3-3.6c0.7,0,1.6,0.2,2.1,0.7L116,20.6L116,20.6z"/>
	<path class="st0" d="M133.1,20.6c-1.2,0.8-2.1,1.3-3.6,1.3c-2.5,0-3.1-1.7-3.1-2.7h8.9c0-4.4-1.5-7.9-6.5-7.9c-4,0-6.9,3.3-6.9,7.2
		c0,3.3,2.1,6.6,6.8,6.6c2,0,4.4-0.6,5.9-1.9L133.1,20.6L133.1,20.6z M126.4,16.6c0.3-1.3,1.4-2.5,2.8-2.5c1.5,0,2.1,1.2,2.1,2.5
		H126.4L126.4,16.6z"/>
	<path class="st1" d="M137,24.7h4.5l0.1-8.4c0.6-0.6,1.6-1.2,2.3-1.2c1.3,0,1.6,0.8,1.6,1.9c0,2.7,0,5.2-0.1,7.7h4.5
		c0-2.8,0.1-5.7,0.1-8.3c0-3.5-1.5-5-4.2-5c-1.6,0-3.2,0.9-4.2,1.9v-1.4h-4.5L137,24.7L137,24.7z"/>
	<path class="st2" d="M71.6,30l0.9,0c9.7,0,17.2-8.7,17.2-18.1h-4.6c0,7.2-5.4,13.1-12.8,13.1L71.6,30L71.6,30z"/>
	<path class="st1" d="M90.2,0c-8.7-0.4-11.9,4.7-11.9,11.8h5c-0.7-6.7,3.2-9,6.4-8.8L90.2,0L90.2,0z"/>
	<path class="st1" d="M64.8,0c8.7-0.4,11.9,4.7,11.9,11.8h-5c0.7-6.7-3.2-9-6.4-8.8L64.8,0L64.8,0z"/>
</g>
</svg>
